<?xml version="1.0" standalone="no"?><!DOCTYPE svg PUBLIC "-//W3C//DTD SVG 1.1//EN" "http://www.w3.org/Graphics/SVG/1.1/DTD/svg11.dtd"><svg t="1744953424408" class="icon" viewBox="0 0 1076 1024" version="1.1" xmlns="http://www.w3.org/2000/svg" p-id="4965" xmlns:xlink="http://www.w3.org/1999/xlink" width="210.15625" height="200"><path d="M974.36923086 800.49743609h-473.07692285c-20.28461573 0-33.80769229-13.52307656-33.80769229-33.80769229 0-20.26153828 13.52307656-33.78461573 33.80769229-33.78461572H940.53846114V192.28205123H95.78461572C75.52307656 192.25897466 62 178.73589723 62 158.45128238 62 138.18974322 75.52307656 124.66666666 95.78461572 124.66666666h878.58461514C994.63076914 124.66666666 1008.15384658 138.18974322 1008.15384658 158.45128238v608.23846143c0 20.28461573-13.52307656 33.80769229-33.78461572 33.80769228z" fill="#1296db" p-id="4966"></path><path d="M230.94615342 800.49743609H95.78461572C75.52307656 800.49743609 62 786.97435865 62 766.66666637v-473.07692286c0-20.26153828 13.52307656-33.78461573 33.78461573-33.78461572 20.28461573 0 33.80769229 13.52307656 33.80769227 33.78461572v439.29230801H230.92307685c20.28461573 0 33.80769229 13.52307656 33.80769229 33.78461485 0 20.28461573-13.52307656 33.80769229-33.80769229 33.80769228z" fill="#1296db" p-id="4967"></path><path d="M230.94615342 1003.22820523c-6.73846172 0-10.13076914 0-13.5-3.36923086-10.15384658-6.76153828-20.28461573-16.89230742-20.28461485-30.41538486v-202.7538457c0-20.26153828 13.52307656-33.78461573 33.78461485-33.78461573 20.28461573 0 33.80769229 13.52307656 33.80769316 33.78461573v135.18461513l216.25384571-162.20769257c13.52307656-10.15384658 37.15384658-6.76153828 47.30769229 6.76153916 10.15384658 13.52307656 6.76153828 37.15384658-6.76153829 47.30769228L251.23076914 996.48974351c-6.76153828 3.36923086-13.52307656 6.73846172-20.28461572 6.73846172z" fill="#1296db" p-id="4968"></path></svg>